<?xml version="1.0" ?><svg id="Layer_1" style="enable-background:new 0 0 100 100;" version="1.1" viewBox="0 0 100 100" xml:space="preserve" xmlns="http://www.w3.org/2000/svg" xmlns:xlink="http://www.w3.org/1999/xlink"><path d="M43.281,65.794c0.391,0.391,0.902,0.586,1.414,0.586s1.023-0.195,1.414-0.586L50,61.903l3.891,3.891  c0.391,0.391,0.902,0.586,1.414,0.586s1.023-0.195,1.414-0.586c0.781-0.781,0.781-2.047,0-2.828l-3.891-3.891l3.891-3.891  c0.781-0.781,0.781-2.047,0-2.828c-0.781-0.781-2.047-0.781-2.828,0L50,56.247l-3.891-3.891c-0.781-0.781-2.047-0.781-2.828,0  c-0.781,0.781-0.781,2.047,0,2.828l3.891,3.891l-3.891,3.891C42.5,63.747,42.5,65.013,43.281,65.794z"/><path d="M88.69,16.451c0-1.104-0.896-2-2-2H69.623C68.652,7.99,63.08,3.015,56.354,3.015H43.646c-6.727,0-12.299,4.975-13.27,11.436  H13.31c-1.104,0-2,0.896-2,2s0.896,2,2,2h18.901h35.578H86.69C87.795,18.451,88.69,17.556,88.69,16.451z M34.424,14.451  c0.92-4.246,4.706-7.436,9.223-7.436h12.707c4.517,0,8.303,3.19,9.223,7.436H34.424z"/><path d="M22.681,21.165c-0.549,0-1.073,0.226-1.451,0.624c-0.378,0.398-0.575,0.935-0.546,1.482l3.299,62.154  c0.345,6.482,5.699,11.56,12.189,11.56h27.656c6.49,0,11.845-5.078,12.189-11.56l3.299-62.154c0.029-0.548-0.168-1.084-0.546-1.482  c-0.378-0.398-0.902-0.624-1.451-0.624H22.681z M48,42.095c-3.583,0.42-6.822,1.955-9.38,4.243l-1.119-21.173H48V42.095z   M49.99,45.968c0.003,0,0.006,0.001,0.01,0.001s0.006-0.001,0.01-0.001c7.223,0.005,13.098,5.883,13.098,13.106  c0,7.228-5.88,13.107-13.107,13.107s-13.107-5.88-13.107-13.107C36.893,51.851,42.767,45.974,49.99,45.968z M61.38,46.338  c-2.558-2.288-5.797-3.823-9.38-4.243v-16.93h10.499L61.38,46.338z M72.023,85.213c-0.231,4.358-3.832,7.771-8.195,7.771H36.172  c-4.363,0-7.964-3.414-8.195-7.771L24.79,25.165h8.706l1.372,25.955c-1.256,2.379-1.975,5.083-1.975,7.954  c0,9.433,7.675,17.107,17.107,17.107s17.107-7.674,17.107-17.107c0-2.872-0.719-5.576-1.975-7.954l1.372-25.955h8.706L72.023,85.213  z"/></svg>